<svg width="400" height="300" viewBox="0 0 400 300" fill="none" xmlns="http://www.w3.org/2000/svg">
  <rect width="400" height="300" fill="#0a0a0a"/>
  
  <!-- Email preview card -->
  <rect x="60" y="40" width="180" height="160" rx="8" fill="#1a1a1a" stroke="#2a2a2a" stroke-width="1"/>
  <rect x="75" y="60" width="100" height="8" rx="2" fill="#3a3a3a"/>
  <rect x="75" y="75" width="80" height="5" rx="2" fill="#2a2a2a"/>
  <rect x="75" y="90" width="150" height="60" rx="4" fill="#2a2a2a"/>
  <rect x="75" y="160" width="60" height="5" rx="2" fill="#3a3a3a"/>
  <rect x="75" y="170" width="120" height="5" rx="2" fill="#2a2a2a"/>
  
  <!-- Export arrow -->
  <path d="M260 120 L310 120" stroke="#5f6ad1" stroke-width="3" stroke-linecap="round"/>
  <path d="M295 105 L310 120 L295 135" stroke="#5f6ad1" stroke-width="3" stroke-linecap="round" stroke-linejoin="round"/>
  
  <!-- Export destinations -->
  <rect x="330" y="55" width="50" height="35" rx="6" fill="#2a2a2a" stroke="#3a3a3a" stroke-width="1"/>
  <rect x="340" y="65" width="30" height="6" rx="2" fill="#5f6ad1"/>
  <rect x="340" y="76" width="20" height="4" rx="1" fill="#4a4a4a"/>
  
  <rect x="330" y="100" width="50" height="35" rx="6" fill="#2a2a2a" stroke="#3a3a3a" stroke-width="1"/>
  <rect x="340" y="110" width="30" height="6" rx="2" fill="#10b981"/>
  <rect x="340" y="121" width="20" height="4" rx="1" fill="#4a4a4a"/>
  
  <rect x="330" y="145" width="50" height="35" rx="6" fill="#2a2a2a" stroke="#3a3a3a" stroke-width="1"/>
  <rect x="340" y="155" width="30" height="6" rx="2" fill="#f59e0b"/>
  <rect x="340" y="166" width="20" height="4" rx="1" fill="#4a4a4a"/>
  
  <!-- Code snippet -->
  <rect x="60" y="215" width="320" height="50" rx="6" fill="#1a1a1a" stroke="#2a2a2a" stroke-width="1"/>
  <rect x="75" y="228" width="8" height="8" rx="2" fill="#5f6ad1"/>
  <rect x="90" y="230" width="60" height="4" rx="1" fill="#6366f1"/>
  <rect x="160" y="230" width="40" height="4" rx="1" fill="#22c55e"/>
  <rect x="210" y="230" width="80" height="4" rx="1" fill="#4a4a4a"/>
  <rect x="75" y="245" width="15" height="4" rx="1" fill="#f59e0b"/>
  <rect x="100" y="245" width="100" height="4" rx="1" fill="#4a4a4a"/>
</svg>

