<svg width="400" height="300" viewBox="0 0 400 300" fill="none" xmlns="http://www.w3.org/2000/svg">
  <rect width="400" height="300" fill="#0a0a0a"/>
  
  <!-- Email preview frame -->
  <rect x="40" y="30" width="200" height="240" rx="8" fill="#1a1a1a" stroke="#2a2a2a" stroke-width="1"/>
  
  <!-- Selected element highlight -->
  <rect x="55" y="80" width="170" height="40" rx="4" fill="#5f6ad1" fill-opacity="0.1" stroke="#5f6ad1" stroke-width="2" stroke-dasharray="4 2"/>
  
  <!-- Text lines in email -->
  <rect x="55" y="50" width="120" height="8" rx="2" fill="#3a3a3a"/>
  <rect x="55" y="65" width="80" height="6" rx="2" fill="#2a2a2a"/>
  <rect x="55" y="90" width="150" height="6" rx="2" fill="#4a4a4a"/>
  <rect x="55" y="102" width="130" height="6" rx="2" fill="#4a4a4a"/>
  
  <!-- Properties panel -->
  <rect x="260" y="30" width="100" height="140" rx="6" fill="#1a1a1a" stroke="#2a2a2a" stroke-width="1"/>
  <rect x="270" y="45" width="60" height="6" rx="2" fill="#5f6ad1"/>
  <rect x="270" y="60" width="80" height="20" rx="4" fill="#2a2a2a"/>
  <rect x="270" y="90" width="40" height="6" rx="2" fill="#3a3a3a"/>
  <rect x="270" y="105" width="80" height="20" rx="4" fill="#2a2a2a"/>
  <rect x="270" y="135" width="50" height="6" rx="2" fill="#3a3a3a"/>
  <rect x="270" y="150" width="30" height="10" rx="2" fill="#5f6ad1"/>
  
  <!-- Cursor pointer -->
  <path d="M145 105 L145 125 L152 118 L160 130 L165 128 L157 116 L165 116 Z" fill="#ffffff"/>
</svg>

